<?xml version="1.0" standalone="no"?>
<!DOCTYPE svg PUBLIC "-//W3C//DTD SVG 20010904//EN"
 "http://www.w3.org/TR/2001/REC-SVG-20010904/DTD/svg10.dtd">
<svg version="1.0" xmlns="http://www.w3.org/2000/svg"
 width="945.000000pt" height="945.000000pt" viewBox="0 0 945.000000 945.000000"
 preserveAspectRatio="xMidYMid meet">

<g transform="translate(0.000000,945.000000) scale(0.100000,-0.100000)"
fill="#000000" stroke="none">
<path d="M2145 6446 c-135 -26 -261 -68 -378 -128 -278 -141 -486 -363 -633
-674 -123 -260 -182 -514 -199 -864 l-7 -135 -61 -95 c-271 -421 -267 -980 11
-1447 78 -130 195 -283 224 -291 10 -2 18 -7 18 -11 0 -3 -59 -87 -130 -186
l-130 -180 63 -3 c70 -3 71 -2 145 110 l37 58 148 0 147 0 0 -85 0 -85 71 0
72 0 -7 112 c-3 62 -9 227 -12 366 l-7 253 -71 -3 -70 -3 -76 -107 c-41 -59
-79 -106 -85 -105 -5 2 -47 51 -91 111 -152 201 -241 418 -275 673 -24 179 11
416 85 578 l32 70 32 -127 c75 -299 200 -527 396 -724 126 -125 237 -203 389
-272 281 -126 590 -155 892 -82 94 23 311 126 422 201 43 29 141 98 218 154
161 118 174 125 274 155 131 40 251 16 461 -92 198 -102 401 -155 555 -145 97
6 134 17 205 59 91 55 119 129 81 213 -20 45 -51 71 -166 138 -209 121 -323
326 -271 484 9 28 27 59 39 71 50 47 -46 43 1557 72 316 5 742 10 945 11 l370
1 85 -27 c100 -32 148 -34 290 -10 163 27 189 22 586 -110 196 -65 367 -117
389 -117 49 -1 92 18 118 53 35 48 32 100 -13 289 -77 320 -111 379 -252 436
-38 15 -68 28 -68 29 0 1 20 45 45 98 51 109 54 133 24 171 -16 21 -29 26 -63
26 -23 0 -50 -6 -61 -14 -11 -8 -42 -59 -70 -115 -27 -56 -54 -101 -60 -101
-5 1 -46 16 -90 34 -61 26 -80 39 -79 53 1 10 18 54 38 98 20 44 36 95 36 113
0 66 -81 106 -136 68 -11 -8 -40 -59 -64 -113 -24 -54 -47 -102 -51 -107 -4
-4 -54 11 -111 34 -85 35 -115 43 -168 43 -83 0 -110 -14 -213 -110 -128 -120
-107 -116 -504 -103 -186 5 -588 17 -893 25 -305 8 -630 17 -721 21 l-166 6
-6 72 c-4 39 -15 105 -26 146 -75 292 -213 488 -414 589 -116 59 -170 71 -322
71 -153 0 -207 -11 -383 -79 -183 -70 -287 -94 -387 -89 -114 6 -178 39 -350
182 -259 216 -426 313 -634 368 -104 28 -134 31 -286 34 -113 2 -194 -1 -240
-10z m451 -186 c101 -24 247 -87 338 -148 39 -26 147 -107 241 -180 111 -86
201 -148 260 -177 167 -83 315 -84 538 -4 277 100 317 111 423 117 178 8 275
-28 394 -148 124 -124 203 -298 217 -477 l6 -73 -84 0 c-46 0 -300 7 -564 16
-264 9 -507 14 -540 11 -87 -7 -144 -27 -180 -64 -56 -57 -58 -76 -62 -456
l-4 -347 30 -30 c41 -42 103 -38 137 9 8 10 14 126 19 353 6 270 10 340 21
349 11 9 65 10 197 5 333 -12 1526 -46 1962 -55 237 -6 647 -16 912 -22 599
-16 568 -22 734 138 42 40 85 73 95 73 11 0 53 -13 94 -29 41 -17 156 -61 255
-99 99 -38 246 -94 327 -125 80 -32 151 -57 156 -57 29 0 65 -84 116 -270 37
-134 38 -140 22 -140 -7 0 -128 38 -267 85 -387 129 -482 144 -696 108 l-102
-17 -88 29 c-73 24 -109 29 -213 33 -151 5 -2711 -36 -2760 -44 -89 -15 -192
-100 -235 -195 -61 -138 -42 -294 56 -456 64 -106 223 -251 327 -297 23 -10
42 -22 42 -26 0 -16 -61 -33 -135 -38 -126 -7 -257 29 -457 127 -223 108 -305
134 -433 135 -157 1 -272 -48 -501 -216 -290 -212 -414 -281 -596 -330 -71
-20 -107 -23 -253 -23 -193 1 -270 15 -446 84 -269 106 -508 345 -640 639 -84
189 -114 303 -139 527 -19 170 -5 407 36 620 18 98 94 327 136 409 76 152 191
311 294 405 178 163 416 272 634 291 118 11 280 2 376 -20z m-1194 -3385 l-3
-165 -109 0 -108 0 100 148 c55 81 104 155 109 165 5 9 11 17 12 17 1 0 1 -74
-1 -165z"/>
<path d="M6699 3160 c-24 -23 -30 -37 -27 -62 8 -87 151 -41 151 48 0 53 -77
62 -124 14z"/>
<path d="M4572 2802 c-67 -198 -122 -362 -122 -366 0 -3 25 -6 55 -6 30 0 55
1 55 3 0 1 44 133 99 292 l98 290 6 -130 c3 -71 12 -203 18 -292 l13 -163 41
0 42 0 201 273 c111 149 209 281 217 292 14 19 14 18 4 -10 -18 -49 -189 -548
-189 -551 0 -2 26 -4 59 -4 l59 0 37 108 c104 301 205 603 205 612 0 6 -31 10
-79 10 l-79 0 -192 -257 c-105 -142 -199 -269 -210 -283 l-19 -25 -1 95 c-1
52 -7 178 -13 280 l-12 185 -85 3 -86 3 -122 -359z"/>
<path d="M4073 3093 c-51 -15 -52 -16 -74 -79 l-23 -64 -43 0 c-45 0 -47 -1
-67 -67 -7 -21 -4 -23 33 -23 23 0 41 -4 41 -8 0 -4 -22 -75 -50 -157 -79
-235 -69 -270 70 -270 43 0 81 3 85 7 4 3 9 24 12 46 l5 40 -39 -5 c-29 -4
-42 -1 -52 11 -12 15 -7 36 34 159 64 190 55 177 124 177 55 0 60 2 69 28 5
15 13 35 17 45 6 15 0 17 -54 17 -34 0 -61 4 -61 10 0 5 11 39 25 76 14 36 25
68 25 70 0 7 -23 3 -77 -13z"/>
<path d="M1939 2944 c-144 -44 -264 -198 -276 -354 -4 -46 -1 -61 19 -89 44
-64 69 -76 166 -76 60 0 102 6 134 18 l46 18 -10 37 c-6 20 -11 38 -12 39 -2
2 -24 -4 -50 -13 -90 -31 -166 8 -166 84 0 88 56 187 129 230 36 21 58 27 101
26 30 0 65 -6 76 -12 18 -10 26 -6 57 26 21 21 37 41 37 44 0 3 -18 13 -40 22
-49 20 -148 20 -211 0z"/>
<path d="M2433 2945 c-147 -45 -268 -196 -280 -348 -4 -53 -2 -67 19 -96 44
-64 69 -76 166 -76 60 0 102 6 133 18 l47 18 -11 40 c-7 31 -13 39 -26 33 -77
-31 -138 -27 -177 11 -29 29 -32 81 -9 146 39 110 119 174 215 173 30 0 65 -6
77 -12 19 -10 25 -7 59 30 l38 42 -40 18 c-47 21 -150 23 -211 3z"/>
<path d="M2920 2951 c-141 -43 -267 -207 -277 -360 -4 -54 -1 -72 17 -99 52
-83 198 -96 351 -30 l47 20 -15 37 -15 38 -56 -23 c-127 -52 -227 -9 -208 89
l7 37 178 0 178 0 18 59 c22 74 17 161 -11 192 -10 12 -33 28 -51 35 -35 15
-122 17 -163 5z m112 -98 c19 -17 25 -77 10 -101 -6 -9 -39 -12 -126 -10
l-117 3 31 43 c17 23 45 51 63 62 40 25 113 27 139 3z"/>
<path d="M3535 2942 c-22 -10 -55 -31 -72 -46 l-33 -27 15 41 14 41 -61 -3
-61 -3 -88 -258 -88 -258 61 3 61 3 47 140 c26 77 56 158 68 181 43 84 129
131 190 102 44 -21 41 -66 -19 -246 -28 -86 -54 -163 -57 -169 -3 -10 12 -13
55 -13 l59 0 62 183 c71 209 78 267 38 313 -20 24 -32 28 -87 31 -47 3 -74 -1
-104 -15z"/>
<path d="M6253 2946 c-125 -39 -204 -179 -140 -250 12 -14 51 -36 86 -48 71
-26 87 -42 77 -81 -13 -55 -117 -75 -191 -37 l-39 20 -39 -38 -38 -37 21 -17
c45 -37 171 -50 241 -26 98 33 169 118 169 200 0 39 -5 50 -30 71 -16 14 -46
30 -67 37 -85 26 -93 31 -93 60 0 15 9 35 20 45 29 26 109 31 154 10 l38 -18
36 36 c32 32 35 39 22 51 -39 36 -148 46 -227 22z"/>
<path d="M7023 2942 c-104 -42 -183 -130 -229 -256 -26 -73 -31 -156 -11 -196
44 -87 189 -95 294 -14 18 14 33 21 33 17 0 -5 -22 -75 -49 -156 l-50 -148 61
3 60 3 129 378 128 377 -60 0 c-57 0 -61 -1 -70 -29 l-10 -28 -33 33 c-31 31
-39 34 -92 33 -33 0 -78 -8 -101 -17z m137 -85 c38 -19 51 -70 33 -132 -40
-135 -113 -210 -205 -210 -40 0 -53 4 -69 24 -57 70 17 257 124 310 48 24 81
26 117 8z"/>
<path d="M8257 2946 c-49 -18 -114 -61 -151 -100 -94 -100 -142 -266 -101
-346 39 -76 160 -102 292 -62 97 30 109 40 94 84 l-12 35 -57 -23 c-65 -27
-130 -31 -171 -9 -32 16 -41 33 -41 75 0 61 -4 60 190 60 l177 0 17 58 c44
158 -7 243 -146 242 -29 -1 -70 -7 -91 -14z m135 -111 c6 -13 7 -40 4 -59 l-7
-36 -120 0 -120 0 15 29 c20 38 80 89 114 97 15 3 32 7 37 8 21 6 67 -18 77
-39z"/>
<path d="M5501 2767 c-70 -208 -77 -267 -38 -312 16 -20 35 -28 69 -32 67 -8
110 3 168 42 52 35 57 34 40 -9 l-10 -26 59 0 59 0 26 73 c14 39 55 157 90
260 l65 188 -61 -3 -60 -3 -53 -150 c-28 -83 -59 -164 -68 -181 -39 -76 -133
-123 -186 -93 -45 25 -40 80 24 262 30 87 55 160 55 163 0 2 -27 4 -59 4 l-59
0 -61 -183z"/>
<path d="M6619 2923 c-6 -16 -46 -133 -89 -260 l-79 -233 59 0 c46 0 59 4 65
18 14 35 165 487 165 494 0 4 -25 8 -55 8 -51 0 -56 -2 -66 -27z"/>
<path d="M7452 2761 c-34 -104 -62 -206 -62 -226 0 -78 44 -115 137 -115 45 0
128 35 152 64 20 24 32 19 21 -10 -16 -41 -13 -44 48 -44 l59 0 12 43 c12 38
143 423 157 461 5 14 -3 16 -55 16 -34 0 -61 -2 -61 -3 0 -22 -117 -331 -136
-360 -43 -66 -143 -95 -191 -56 -24 21 -13 87 42 244 30 87 55 161 55 166 0 5
-26 9 -58 9 l-58 0 -62 -189z"/>
</g>
</svg>
